<?xml version="1.0" encoding="UTF-8" standalone="no"?>
<!DOCTYPE svg PUBLIC "-//W3C//DTD SVG 1.1//EN" "http://www.w3.org/Graphics/SVG/1.1/DTD/svg11.dtd">
<svg width="100%" height="100%" viewBox="0 0 1024 1024" version="1.1" xmlns="http://www.w3.org/2000/svg" xmlns:xlink="http://www.w3.org/1999/xlink" xml:space="preserve" xmlns:serif="http://www.serif.com/" style="fill-rule:evenodd;clip-rule:evenodd;stroke-linejoin:round;stroke-miterlimit:2;">
    <g transform="matrix(2.354023,0,0,3.121951,-138.887356,-493.268293)">
        <rect x="59" y="158" width="435" height="328" style="fill:rgb(255,128,0);"/>
    </g>
    <g transform="matrix(1,0,0,1,-62,-42.806371)">
        <g transform="matrix(0,0.658932,-0.866953,-0.0893,815.012876,243.745311)">
            <path d="M933.052,278C815.181,396.402 804.434,534.009 897.463,690.22C905.387,703.583 905.52,717.278 897.827,727.645C890.135,738.012 875.4,743.995 857.561,743.995C709.669,744 385.589,744 263.656,744C234.883,744 204.436,728.603 190.834,707.173C86.746,543.944 93.884,400.666 215.999,278C58.187,153.401 13.24,7.534 77.421,-158.908C84.171,-176.465 104.924,-188 129.762,-188C241.981,-188 561.375,-188 717.98,-187.998C737.468,-187.998 756.731,-180.865 769.73,-168.834C782.729,-156.803 787.874,-141.348 783.551,-127.311C736.484,26.051 785.303,161.346 933.052,278Z" style="fill:white;"/>
        </g>
        <g id="INCE-logo-outlined" transform="matrix(0.866953,0,0,0.866953,47.965558,381.415813)">
            <path d="M276.765,89.301C276.765,80.882 269.94,74.057 261.521,74.057C249.727,74.057 233.474,74.057 221.68,74.057C213.261,74.057 206.436,80.882 206.436,89.301C206.436,134.227 206.436,265.773 206.436,310.699C206.436,319.118 213.261,325.943 221.68,325.943C233.474,325.943 249.727,325.943 261.521,325.943C269.94,325.943 276.765,319.118 276.765,310.699C276.765,265.773 276.765,134.227 276.765,89.301ZM303.815,310.699C303.815,314.742 305.421,318.619 308.28,321.478C311.139,324.337 315.016,325.943 319.059,325.943C330.852,325.943 347.106,325.943 358.899,325.943C362.942,325.943 366.819,324.337 369.678,321.478C372.537,318.619 374.143,314.742 374.143,310.699C374.143,284.567 374.143,233.974 374.143,233.974C374.143,223.804 374.143,204.057 373.278,181.39C385.109,203.163 396.241,222.616 403.383,233.929C403.399,233.955 403.416,233.982 403.432,234.008C404.462,235.661 442.921,297.399 456.227,318.759C459.01,323.227 463.902,325.943 469.166,325.943L517.139,325.943C521.182,325.943 525.059,324.337 527.918,321.478C530.777,318.619 532.383,314.742 532.383,310.699C532.383,265.773 532.383,134.227 532.383,89.301C532.383,80.882 525.558,74.057 517.139,74.057C505.345,74.057 489.092,74.057 477.298,74.057C468.879,74.057 462.054,80.882 462.054,89.301C462.054,115.51 462.054,166.35 462.054,166.35C462.054,178.36 462.217,198.81 462.92,219.259C453.091,201.221 442.83,182.482 436.874,172.998C436.859,172.974 436.844,172.949 436.828,172.924C435.892,171.415 393.937,103.784 379.968,81.265C377.187,76.783 372.288,74.057 367.013,74.057C355.221,74.057 333.68,74.057 319.059,74.057C315.016,74.057 311.139,75.663 308.28,78.522C305.421,81.381 303.815,85.258 303.815,89.301C303.815,134.227 303.815,265.773 303.815,310.699ZM675.096,330C732.187,330 774.43,299.155 788.203,250.669C789.506,246.073 788.578,241.131 785.697,237.32C782.816,233.51 778.315,231.27 773.537,231.27C760.621,231.269 743.79,231.269 732.759,231.269C726.411,231.269 720.728,235.203 718.492,241.143C711.821,258.817 697,269.139 676.449,269.139C642.096,269.139 623.702,244.091 623.702,200.162C623.702,156.017 642.258,130.861 676.449,130.861C696.996,130.861 711.971,141.258 718.571,159.076C720.777,165.063 726.481,169.04 732.861,169.04C743.907,169.055 760.702,169.055 773.584,169.055C778.356,169.055 782.852,166.821 785.734,163.018C788.616,159.214 789.551,154.281 788.26,149.687C774.583,101.119 732.204,70 675.096,70C606.282,70 552.67,115.984 552.67,200.162C552.67,283.691 606.282,330 675.096,330ZM812.007,310.699C812.007,319.118 818.832,325.943 827.251,325.943C863.673,325.943 955.423,325.943 991.845,325.943C1000.264,325.943 1007.089,319.118 1007.089,310.699C1007.089,301.791 1007.089,290.586 1007.089,281.678C1007.089,273.259 1000.264,266.434 991.845,266.434C967.857,266.434 921.568,266.434 897.58,266.434C889.161,266.434 882.336,259.609 882.336,251.19C882.336,248.863 882.336,246.46 882.336,244.133C882.336,235.714 889.161,228.889 897.58,228.889L982.215,228.889C986.258,228.889 990.135,227.283 992.994,224.424C995.853,221.565 997.459,217.688 997.459,213.645C997.459,205.309 997.459,195.016 997.459,186.68C997.459,182.637 995.853,178.76 992.994,175.901C990.135,173.042 986.258,171.436 982.215,171.436C960.17,171.436 919.625,171.436 897.58,171.436C889.161,171.436 882.336,164.611 882.336,156.192L882.336,148.81C882.336,140.391 889.161,133.566 897.58,133.566C921.568,133.566 967.857,133.566 991.845,133.566C1000.264,133.566 1007.089,126.741 1007.089,118.322C1007.089,109.414 1007.089,98.209 1007.089,89.301C1007.089,80.882 1000.264,74.057 991.845,74.057C955.423,74.057 863.673,74.057 827.251,74.057C818.832,74.057 812.007,80.882 812.007,89.301C812.007,134.227 812.007,265.773 812.007,310.699Z" style="fill:rgb(255,128,0);fill-rule:nonzero;"/>
        </g>
    </g>
</svg>
