<?xml version="1.0" encoding="UTF-8" standalone="no"?>
<!DOCTYPE svg PUBLIC "-//W3C//DTD SVG 1.1//EN" "http://www.w3.org/Graphics/SVG/1.1/DTD/svg11.dtd">
<svg width="100%" height="100%" viewBox="0 0 801 260" version="1.1" xmlns="http://www.w3.org/2000/svg" xmlns:xlink="http://www.w3.org/1999/xlink" xml:space="preserve" xmlns:serif="http://www.serif.com/" style="fill-rule:evenodd;clip-rule:evenodd;stroke-linejoin:round;stroke-miterlimit:2;">
    <g transform="matrix(1,0,0,1,-206.436,-70)">
        <path id="INCE-logo-outlined" d="M276.765,87.273C276.765,83.768 275.373,80.406 272.894,77.928C270.416,75.449 267.054,74.057 263.549,74.057C250.991,74.057 232.21,74.057 219.652,74.057C216.147,74.057 212.785,75.449 210.307,77.928C207.828,80.406 206.436,83.768 206.436,87.273C206.436,130.779 206.436,269.221 206.436,312.727C206.436,316.232 207.828,319.594 210.307,322.072C212.785,324.551 216.147,325.943 219.652,325.943C232.21,325.943 250.991,325.943 263.549,325.943C267.054,325.943 270.416,324.551 272.894,322.072C275.373,319.594 276.765,316.232 276.765,312.727C276.765,269.221 276.765,130.779 276.765,87.273ZM303.815,312.727C303.815,316.232 305.207,319.594 307.686,322.072C310.164,324.551 313.526,325.943 317.031,325.943C329.589,325.943 348.369,325.943 360.927,325.943C368.226,325.943 374.143,320.026 374.143,312.727C374.143,287.287 374.143,233.974 374.143,233.974C374.143,223.804 374.143,204.057 373.278,181.39C385.111,203.167 396.245,222.622 403.387,233.935C403.401,233.958 403.415,233.981 403.429,234.004C404.408,235.575 444.101,299.293 456.822,319.715C459.235,323.588 463.476,325.943 468.04,325.943C480.061,325.943 504.116,325.943 519.167,325.943C522.672,325.943 526.034,324.551 528.512,322.072C530.991,319.594 532.383,316.232 532.383,312.727C532.383,269.221 532.383,130.779 532.383,87.273C532.383,83.768 530.991,80.406 528.512,77.928C526.034,75.449 522.672,74.057 519.167,74.057C506.609,74.057 487.828,74.057 475.27,74.057C471.765,74.057 468.403,75.449 465.925,77.928C463.446,80.406 462.054,83.768 462.054,87.273C462.054,112.784 462.054,166.35 462.054,166.35C462.054,178.36 462.217,198.81 462.92,219.259C453.088,201.216 442.825,182.473 436.87,172.992C436.857,172.97 436.843,172.949 436.83,172.927C435.931,171.478 392.709,101.804 379.373,80.306C376.962,76.421 372.715,74.057 368.142,74.057C356.115,74.057 332.075,74.057 317.031,74.057C313.526,74.057 310.164,75.449 307.686,77.928C305.207,80.406 303.815,83.768 303.815,87.273C303.815,130.779 303.815,269.221 303.815,312.727ZM675.096,330C733.294,330 776.062,297.947 788.972,247.829C790.009,243.869 789.151,239.653 786.649,236.412C784.148,233.172 780.286,231.275 776.192,231.275C762.472,231.269 743.051,231.269 731.349,231.269C725.739,231.269 720.741,234.811 718.881,240.103C712.397,258.41 697.401,269.139 676.449,269.139C642.096,269.139 623.702,244.091 623.702,200.162C623.702,156.017 642.258,130.861 676.449,130.861C697.396,130.861 712.553,141.667 718.947,160.127C720.779,165.464 725.798,169.048 731.441,169.048C743.163,169.055 762.546,169.055 776.233,169.055C780.323,169.055 784.182,167.162 786.685,163.927C789.188,160.693 790.053,156.482 789.026,152.523C776.217,102.334 733.309,70 675.096,70C606.282,70 552.67,115.984 552.67,200.162C552.67,283.691 606.282,330 675.096,330ZM812.007,312.727C812.007,316.232 813.399,319.594 815.878,322.072C818.356,324.551 821.718,325.943 825.223,325.943C860.799,325.943 958.297,325.943 993.873,325.943C997.378,325.943 1000.74,324.551 1003.218,322.072C1005.697,319.594 1007.089,316.232 1007.089,312.727C1007.089,302.881 1007.089,289.496 1007.089,279.65C1007.089,276.145 1005.697,272.783 1003.218,270.305C1000.74,267.826 997.378,266.434 993.873,266.434C969.902,266.434 919.523,266.434 895.552,266.434C892.047,266.434 888.685,265.042 886.207,262.563C883.728,260.085 882.336,256.723 882.336,253.218C882.336,249.614 882.336,245.709 882.336,242.105C882.336,238.6 883.728,235.238 886.207,232.76C888.685,230.281 892.047,228.889 895.552,228.889C917.707,228.889 962.088,228.889 984.243,228.889C987.748,228.889 991.11,227.497 993.588,225.018C996.067,222.54 997.459,219.178 997.459,215.673C997.459,206.367 997.459,193.958 997.459,184.652C997.459,181.147 996.067,177.785 993.588,175.307C991.11,172.828 987.748,171.436 984.243,171.436C962.088,171.436 917.707,171.436 895.552,171.436C892.047,171.436 888.685,170.044 886.207,167.565C883.728,165.087 882.336,161.725 882.336,158.22C882.336,154.515 882.336,150.487 882.336,146.782C882.336,143.277 883.728,139.915 886.207,137.437C888.685,134.958 892.047,133.566 895.552,133.566C919.523,133.566 969.902,133.566 993.873,133.566C997.378,133.566 1000.74,132.174 1003.218,129.695C1005.697,127.217 1007.089,123.855 1007.089,120.35C1007.089,110.504 1007.089,97.119 1007.089,87.273C1007.089,83.768 1005.697,80.406 1003.218,77.928C1000.74,75.449 997.378,74.057 993.873,74.057C958.297,74.057 860.799,74.057 825.223,74.057C821.718,74.057 818.356,75.449 815.878,77.928C813.399,80.406 812.007,83.768 812.007,87.273C812.007,130.779 812.007,269.221 812.007,312.727Z" style="fill:rgb(255,128,0);fill-rule:nonzero;"/>
    </g>
</svg>
