<?xml version="1.0" encoding="UTF-8" standalone="no"?>
<!DOCTYPE svg PUBLIC "-//W3C//DTD SVG 1.1//EN" "http://www.w3.org/Graphics/SVG/1.1/DTD/svg11.dtd">
<svg width="100%" height="100%" viewBox="0 0 1024 1024" version="1.1" xmlns="http://www.w3.org/2000/svg" xmlns:xlink="http://www.w3.org/1999/xlink" xml:space="preserve" xmlns:serif="http://www.serif.com/" style="fill-rule:evenodd;clip-rule:evenodd;stroke-linejoin:round;stroke-miterlimit:2;">
    <g transform="matrix(2.354023,0,0,3.121951,-138.887356,-493.268293)">
        <rect x="59" y="158" width="435" height="328" style="fill:rgb(255,128,0);"/>
    </g>
    <g transform="matrix(0,0.658932,-0.866953,-0.0893,753.012876,200.93894)">
        <path d="M933.052,278C815.181,396.402 804.434,534.009 897.463,690.22C905.387,703.583 905.52,717.278 897.827,727.645C890.135,738.012 875.4,743.995 857.561,743.995C709.669,744 385.589,744 263.656,744C234.883,744 204.436,728.603 190.834,707.173C86.746,543.944 93.884,400.666 215.999,278C58.187,153.401 13.24,7.534 77.421,-158.908C84.171,-176.465 104.924,-188 129.762,-188C241.981,-188 561.375,-188 717.98,-187.998C737.468,-187.998 756.731,-180.865 769.73,-168.834C782.729,-156.803 787.874,-141.348 783.551,-127.311C736.484,26.051 785.303,161.346 933.052,278Z" style="fill:white;"/>
    </g>
    <g transform="matrix(0.280369,0,0,0.280369,91.446403,207.630936)">
        <g transform="matrix(0.937016,0,0,0.937016,-161.406524,121.689348)">
            <path d="M553.39,914.537C542.947,928.961 525.591,936.703 507.882,934.837C489.698,933.041 466.819,930.629 446.113,928.447C430.825,926.836 417.539,917.237 411.209,903.229C404.878,889.221 406.453,872.906 415.346,860.368C415.35,860.365 415.353,860.361 415.355,860.357C426.086,845.23 441.536,832.107 461.706,820.988C476.186,812.973 496.096,806.767 521.437,802.371C546.778,797.975 574.187,795.777 603.665,795.777C650.984,795.777 688.995,798.428 717.697,803.728C746.399,809.029 770.318,820.083 789.453,836.891C802.899,848.527 813.5,865.011 821.258,886.344C829.015,907.677 832.894,928.04 832.894,947.433L832.894,1129.342C832.894,1148.736 834.122,1163.927 836.578,1174.916C839.035,1185.906 844.4,1199.934 852.675,1217L726.26,1217C711.056,1217.001 697.58,1207.216 692.873,1192.759C692.874,1192.759 692.874,1192.758 692.874,1192.758C691.064,1187.199 689.254,1178.472 687.444,1166.577C666.758,1186.488 646.201,1200.71 625.773,1209.243C597.847,1220.62 565.395,1226.309 528.419,1226.309C479.289,1226.309 441.989,1214.931 416.519,1192.177C391.049,1169.422 378.314,1141.366 378.314,1108.01C378.314,1076.722 387.494,1050.993 405.853,1030.824C424.212,1010.655 458.085,995.658 507.474,985.832C566.688,973.937 605.087,965.598 622.67,960.814C640.253,956.031 658.871,949.76 678.523,942.003C678.523,922.609 674.515,909.034 666.499,901.277C658.483,893.519 644.391,889.641 624.222,889.641C598.364,889.641 578.97,893.778 566.042,902.052C561.416,905.017 557.199,909.179 553.39,914.537ZM678.523,1046.726C678.523,1040.941 675.76,1035.505 671.087,1032.095C666.415,1028.686 660.394,1027.713 654.886,1029.478C640.515,1034.055 625.767,1038.25 610.646,1042.072C578.583,1050.605 558.284,1059.009 549.751,1067.284C540.96,1075.817 536.564,1085.513 536.564,1096.374C536.564,1108.785 540.895,1118.934 549.557,1126.821C558.22,1134.708 570.955,1138.651 587.762,1138.651C605.345,1138.651 621.7,1134.384 636.827,1125.851C651.954,1117.318 662.685,1106.911 669.02,1094.628C675.355,1082.346 678.523,1066.379 678.523,1046.727L678.523,1046.726Z" style="fill:rgb(255,128,0);fill-rule:nonzero;"/>
        </g>
        <g transform="matrix(0.937016,0,0,0.937016,-161.406524,121.689348)">
            <path d="M932.963,727.509C932.963,683.812 968.387,648.388 1012.085,648.388C1012.087,648.388 1012.089,648.388 1012.091,648.388C1055.789,648.388 1091.213,683.812 1091.213,727.509C1091.213,835.912 1091.213,1029.476 1091.213,1137.879C1091.213,1181.576 1055.789,1217 1012.091,1217C1012.089,1217 1012.087,1217 1012.085,1217C968.387,1217 932.963,1181.576 932.963,1137.879C932.963,1029.476 932.963,835.912 932.963,727.509Z" style="fill:rgb(255,128,0);fill-rule:nonzero;"/>
        </g>
        <g transform="matrix(0.937016,0,0,0.937016,-161.406524,121.689348)">
            <path d="M1197.488,727.509C1197.488,683.812 1232.912,648.388 1276.609,648.388C1276.612,648.388 1276.614,648.388 1276.616,648.388C1320.314,648.388 1355.738,683.812 1355.738,727.509C1355.738,835.912 1355.738,1029.476 1355.738,1137.879C1355.738,1181.576 1320.314,1217 1276.616,1217C1276.614,1217 1276.612,1217 1276.609,1217C1232.912,1217 1197.488,1181.576 1197.488,1137.879C1197.488,1029.476 1197.488,835.912 1197.488,727.509Z" style="fill:rgb(255,128,0);fill-rule:nonzero;"/>
        </g>
        <g transform="matrix(0.937016,0,0,0.937016,-161.406524,121.689348)">
            <path d="M1437.19,1012.207C1437.19,949.372 1458.393,897.592 1500.8,856.866C1543.206,816.14 1600.481,795.777 1672.624,795.777C1755.111,795.777 1817.428,819.696 1859.576,867.532C1893.45,906.06 1910.387,953.509 1910.387,1009.879C1910.387,1073.231 1889.377,1125.14 1847.358,1165.608C1805.339,1206.075 1747.224,1226.309 1673.012,1226.309C1606.816,1226.309 1553.291,1209.501 1512.436,1175.886C1462.272,1134.255 1437.19,1079.695 1437.19,1012.207ZM1595.439,1011.819C1595.439,1048.537 1602.873,1075.687 1617.741,1093.271C1632.61,1110.854 1651.292,1119.646 1673.788,1119.646C1696.543,1119.646 1715.225,1110.983 1729.835,1093.658C1744.444,1076.334 1751.749,1048.537 1751.749,1010.267C1751.749,974.584 1744.38,948.015 1729.641,930.561C1714.902,913.107 1696.672,904.38 1674.952,904.38C1651.938,904.38 1632.933,913.236 1617.935,930.949C1602.938,948.661 1595.439,975.618 1595.439,1011.819Z" style="fill:rgb(255,128,0);fill-rule:nonzero;"/>
        </g>
        <g transform="matrix(0.937016,0,0,0.937016,-161.406524,121.689348)">
            <path d="M1968.058,919.762C1958.37,893.649 1962.077,864.448 1977.982,841.583C1993.886,818.718 2019.975,805.086 2047.828,805.086C2049.056,805.086 2050.259,805.086 2051.434,805.086C2067.261,805.086 2081.075,815.813 2084.994,831.147C2101.812,896.943 2144.658,1064.569 2144.658,1064.569C2144.658,1064.569 2175.472,969.13 2199.725,894.014C2216.839,841.007 2266.184,805.086 2321.885,805.086L2334.894,805.086C2356.333,805.086 2375.372,818.789 2382.179,839.118C2405.747,909.506 2457.666,1064.569 2457.666,1064.569C2457.666,1064.569 2498.966,902.992 2516.386,834.841C2520.861,817.334 2536.633,805.086 2554.703,805.086C2554.707,805.086 2554.711,805.086 2554.715,805.086C2582.289,805.086 2608.121,818.564 2623.895,841.18C2639.669,863.796 2643.392,892.695 2633.865,918.571C2606.164,993.809 2570.813,1089.826 2547.801,1152.33C2533.496,1191.185 2496.482,1217 2455.077,1217C2448.603,1217 2442.114,1217 2435.83,1217C2404.611,1217 2376.878,1197.07 2366.922,1167.481C2342.589,1095.16 2300.192,969.153 2300.192,969.153C2300.192,969.153 2265.813,1074.771 2241.939,1148.113C2228.567,1189.194 2190.273,1217 2147.071,1217C2140.935,1217 2134.818,1217 2128.906,1217C2098.506,1217 2071.316,1198.086 2060.742,1169.585C2038.27,1109.015 1998.63,1002.168 1968.058,919.762Z" style="fill:rgb(255,128,0);fill-rule:nonzero;"/>
        </g>
        <g transform="matrix(0.937016,0,0,0.937016,-161.406524,121.689348)">
            <path d="M2868.564,914.537C2858.122,928.961 2840.766,936.703 2823.056,934.837C2804.872,933.041 2781.993,930.629 2761.287,928.447C2746,926.836 2732.714,917.237 2726.383,903.229C2720.052,889.221 2721.627,872.906 2730.521,860.368C2730.525,860.365 2730.527,860.361 2730.53,860.357C2741.261,845.23 2756.711,832.107 2776.88,820.988C2791.36,812.973 2811.271,806.767 2836.611,802.371C2861.952,797.975 2889.361,795.777 2918.839,795.777C2966.159,795.777 3004.17,798.428 3032.872,803.728C3061.574,809.029 3085.492,820.083 3104.627,836.891C3118.073,848.527 3128.675,865.011 3136.432,886.344C3144.19,907.677 3148.068,928.04 3148.068,947.433L3148.068,1129.342C3148.068,1148.736 3149.296,1163.927 3151.753,1174.916C3154.209,1185.906 3159.575,1199.934 3167.849,1217L3041.434,1217C3026.231,1217.001 3012.754,1207.216 3008.047,1192.759C3008.048,1192.759 3008.048,1192.758 3008.048,1192.758C3006.238,1187.199 3004.428,1178.472 3002.618,1166.577C2981.932,1186.488 2961.375,1200.71 2940.948,1209.243C2913.021,1220.62 2880.57,1226.309 2843.593,1226.309C2794.463,1226.309 2757.163,1214.931 2731.694,1192.177C2706.224,1169.422 2693.489,1141.366 2693.489,1108.01C2693.489,1076.722 2702.668,1050.993 2721.027,1030.824C2739.386,1010.655 2773.26,995.658 2822.648,985.832C2881.863,973.937 2920.261,965.598 2937.845,960.814C2955.428,956.031 2974.045,949.76 2993.697,942.003C2993.697,922.609 2989.689,909.034 2981.673,901.277C2973.658,893.519 2959.565,889.641 2939.396,889.641C2913.538,889.641 2894.145,893.778 2881.216,902.052C2876.591,905.017 2872.374,909.179 2868.564,914.537ZM2993.697,1046.726C2993.697,1040.941 2990.934,1035.505 2986.262,1032.095C2981.589,1028.686 2975.569,1027.713 2970.06,1029.478C2955.689,1034.055 2940.942,1038.25 2925.821,1042.072C2893.757,1050.605 2873.459,1059.009 2864.926,1067.284C2856.134,1075.817 2851.738,1085.513 2851.738,1096.374C2851.738,1108.785 2856.069,1118.934 2864.732,1126.821C2873.394,1134.708 2886.129,1138.651 2902.937,1138.651C2920.52,1138.651 2936.875,1134.384 2952.002,1125.851C2967.128,1117.318 2977.859,1106.911 2984.195,1094.628C2990.53,1082.346 2993.697,1066.379 2993.697,1046.727L2993.697,1046.726Z" style="fill:rgb(255,128,0);fill-rule:nonzero;"/>
        </g>
    </g>
</svg>
