<?xml version="1.0" encoding="UTF-8" standalone="no"?>
<!DOCTYPE svg PUBLIC "-//W3C//DTD SVG 1.1//EN" "http://www.w3.org/Graphics/SVG/1.1/DTD/svg11.dtd">
<svg width="100%" height="100%" viewBox="0 0 2614 542" version="1.1" xmlns="http://www.w3.org/2000/svg" xmlns:xlink="http://www.w3.org/1999/xlink" xml:space="preserve" xmlns:serif="http://www.serif.com/" style="fill-rule:evenodd;clip-rule:evenodd;stroke-linejoin:round;stroke-miterlimit:2;">
    <g transform="matrix(1,0,0,1,-193.080087,-729.239339)">
        <g>
            <g transform="matrix(0.937016,0,0,0.937016,-161.406524,121.689348)">
                <path d="M550.104,919.627C543.477,930.944 530.839,937.332 517.797,935.957C494.601,933.558 458.901,929.795 431.24,926.88C420.514,925.749 410.992,919.513 405.669,910.132C400.346,900.751 399.877,889.379 404.408,879.591C407.713,872.403 411.359,865.99 415.355,860.357C426.086,845.23 441.536,832.107 461.706,820.988C476.186,812.973 496.096,806.767 521.437,802.371C546.778,797.975 574.187,795.777 603.665,795.777C650.984,795.777 688.995,798.428 717.697,803.728C746.399,809.029 770.318,820.083 789.453,836.891C802.899,848.527 813.5,865.011 821.258,886.344C829.015,907.677 832.894,928.04 832.894,947.433L832.894,1129.342C832.894,1148.736 834.122,1163.927 836.578,1174.916C839.035,1185.906 844.4,1199.934 852.675,1217L725.046,1217C710.842,1217 698.188,1208.024 693.494,1194.618C693.28,1193.964 693.066,1193.347 692.874,1192.758C691.064,1187.199 689.254,1178.472 687.444,1166.577C666.758,1186.488 646.201,1200.71 625.773,1209.243C597.847,1220.62 565.395,1226.309 528.419,1226.309C479.289,1226.309 441.989,1214.931 416.519,1192.177C391.049,1169.422 378.314,1141.366 378.314,1108.01C378.314,1076.722 387.494,1050.993 405.853,1030.824C424.212,1010.655 458.085,995.658 507.474,985.832C566.688,973.937 605.087,965.598 622.67,960.814C640.253,956.031 658.871,949.76 678.523,942.003C678.523,922.609 674.515,909.034 666.499,901.277C658.483,893.519 644.391,889.641 624.222,889.641C598.364,889.641 578.97,893.778 566.042,902.052C560.043,905.898 554.73,911.756 550.104,919.627ZM678.523,1046.725C678.523,1040.941 675.76,1035.504 671.087,1032.095C666.415,1028.686 660.395,1027.713 654.886,1029.478C640.515,1034.055 625.767,1038.25 610.646,1042.072C578.583,1050.605 558.284,1059.009 549.751,1067.284C540.96,1075.817 536.564,1085.513 536.564,1096.374C536.564,1108.785 540.895,1118.934 549.557,1126.821C558.22,1134.708 570.955,1138.651 587.762,1138.651C605.345,1138.651 621.7,1134.384 636.827,1125.851C651.954,1117.318 662.685,1106.911 669.02,1094.628C675.355,1082.346 678.523,1066.379 678.523,1046.727L678.523,1046.725Z" style="fill:rgb(255,128,0);fill-rule:nonzero;"/>
            </g>
            <g transform="matrix(0.937016,0,0,0.937016,-161.406524,121.689348)">
                <path d="M932.963,681.817C932.963,672.951 936.485,664.448 942.754,658.179C949.023,651.91 957.526,648.388 966.392,648.388L1057.784,648.388C1066.65,648.388 1075.152,651.91 1081.422,658.179C1087.691,664.448 1091.213,672.951 1091.213,681.817L1091.213,1183.571C1091.213,1192.437 1087.691,1200.94 1081.422,1207.209C1075.152,1213.478 1066.65,1217 1057.784,1217L966.392,1217C957.526,1217 949.023,1213.478 942.754,1207.209C936.485,1200.94 932.963,1192.437 932.963,1183.571L932.963,681.817Z" style="fill:rgb(255,128,0);fill-rule:nonzero;"/>
            </g>
            <g transform="matrix(0.937016,0,0,0.937016,-161.406524,121.689348)">
                <path d="M1197.488,681.817C1197.488,672.951 1201.01,664.448 1207.279,658.179C1213.548,651.91 1222.051,648.388 1230.917,648.388C1257.809,648.388 1295.416,648.388 1322.309,648.388C1331.174,648.388 1339.677,651.91 1345.946,658.179C1352.216,664.448 1355.738,672.951 1355.738,681.817L1355.738,1183.571C1355.738,1192.437 1352.216,1200.94 1345.946,1207.209C1339.677,1213.478 1331.174,1217 1322.309,1217L1230.917,1217C1222.051,1217 1213.548,1213.478 1207.279,1207.209C1201.01,1200.94 1197.488,1192.437 1197.488,1183.571L1197.488,681.817Z" style="fill:rgb(255,128,0);fill-rule:nonzero;"/>
            </g>
            <g transform="matrix(0.937016,0,0,0.937016,-161.406524,121.689348)">
                <path d="M1437.19,1012.207C1437.19,949.372 1458.393,897.592 1500.8,856.866C1543.206,816.14 1600.481,795.777 1672.624,795.777C1755.111,795.777 1817.428,819.696 1859.576,867.532C1893.45,906.06 1910.387,953.509 1910.387,1009.879C1910.387,1073.231 1889.377,1125.14 1847.358,1165.608C1805.339,1206.075 1747.224,1226.309 1673.012,1226.309C1606.816,1226.309 1553.291,1209.501 1512.436,1175.886C1462.272,1134.255 1437.19,1079.695 1437.19,1012.207ZM1595.439,1011.819C1595.439,1048.537 1602.873,1075.687 1617.741,1093.271C1632.61,1110.854 1651.292,1119.646 1673.788,1119.646C1696.543,1119.646 1715.225,1110.983 1729.835,1093.658C1744.444,1076.334 1751.749,1048.537 1751.749,1010.267C1751.749,974.584 1744.38,948.015 1729.641,930.561C1714.902,913.107 1696.672,904.38 1674.952,904.38C1651.938,904.38 1632.933,913.236 1617.935,930.949C1602.938,948.661 1595.439,975.618 1595.439,1011.819Z" style="fill:rgb(255,128,0);fill-rule:nonzero;"/>
            </g>
            <g transform="matrix(0.937016,0,0,0.937016,-161.406524,121.689348)">
                <path d="M1942.229,850.143C1938.423,839.883 1939.879,828.409 1946.128,819.426C1952.377,810.442 1962.628,805.086 1973.571,805.086C1999.64,805.086 2030.839,805.086 2052.374,805.086C2067.647,805.086 2080.979,815.438 2084.761,830.236C2101.413,895.382 2144.658,1064.569 2144.658,1064.569C2144.658,1064.569 2193.51,913.262 2216.606,841.729C2223.658,819.887 2243.991,805.086 2266.942,805.086L2332.713,805.086C2355.455,805.086 2375.651,819.622 2382.871,841.187C2406.747,912.494 2457.666,1064.569 2457.666,1064.569C2457.666,1064.569 2500.911,895.382 2517.563,830.236C2521.345,815.438 2534.676,805.086 2549.95,805.086L2627.717,805.086C2638.645,805.086 2648.884,810.428 2655.135,819.392C2661.387,828.355 2662.863,839.809 2659.087,850.065C2626.671,938.109 2555.924,1130.266 2532.047,1195.121C2527.207,1208.266 2514.684,1217 2500.676,1217C2474.918,1217 2433.645,1217 2407.606,1217C2393.252,1217 2380.5,1207.836 2375.923,1194.231C2355.306,1132.956 2300.192,969.153 2300.192,969.153C2300.192,969.153 2247.054,1132.4 2227.029,1193.918C2222.549,1207.683 2209.718,1217 2195.242,1217C2168.989,1217 2127.434,1217 2101.586,1217C2087.608,1217 2075.106,1208.304 2070.244,1195.199C2046.219,1130.439 1974.92,938.258 1942.229,850.143Z" style="fill:rgb(255,128,0);fill-rule:nonzero;"/>
            </g>
            <g transform="matrix(0.937016,0,0,0.937016,-161.406524,121.689348)">
                <path d="M2865.279,919.627C2858.652,930.944 2846.013,937.332 2832.971,935.957C2809.776,933.558 2774.076,929.795 2746.415,926.88C2735.688,925.749 2726.167,919.513 2720.844,910.132C2715.521,900.751 2715.051,889.379 2719.582,879.591C2722.888,872.403 2726.534,865.99 2730.53,860.357C2741.261,845.23 2756.711,832.107 2776.88,820.988C2791.36,812.973 2811.271,806.767 2836.611,802.371C2861.952,797.975 2889.361,795.777 2918.839,795.777C2966.159,795.777 3004.17,798.428 3032.872,803.728C3061.574,809.029 3085.492,820.083 3104.627,836.891C3118.073,848.527 3128.675,865.011 3136.432,886.344C3144.19,907.677 3148.068,928.04 3148.068,947.433L3148.068,1129.342C3148.068,1148.736 3149.296,1163.927 3151.753,1174.916C3154.209,1185.906 3159.575,1199.934 3167.849,1217L3040.221,1217C3026.016,1217 3013.363,1208.024 3008.669,1194.618C3008.455,1193.964 3008.24,1193.347 3008.048,1192.758C3006.238,1187.199 3004.428,1178.472 3002.618,1166.577C2981.932,1186.488 2961.375,1200.71 2940.948,1209.243C2913.021,1220.62 2880.57,1226.309 2843.593,1226.309C2794.463,1226.309 2757.163,1214.931 2731.694,1192.177C2706.224,1169.422 2693.489,1141.366 2693.489,1108.01C2693.489,1076.722 2702.668,1050.993 2721.027,1030.824C2739.386,1010.655 2773.26,995.658 2822.648,985.832C2881.863,973.937 2920.261,965.598 2937.845,960.814C2955.428,956.031 2974.045,949.76 2993.697,942.003C2993.697,922.609 2989.689,909.034 2981.673,901.277C2973.658,893.519 2959.565,889.641 2939.396,889.641C2913.538,889.641 2894.145,893.778 2881.216,902.052C2875.217,905.898 2869.905,911.756 2865.279,919.627ZM2993.697,1046.725C2993.697,1040.941 2990.934,1035.504 2986.262,1032.095C2981.589,1028.686 2975.569,1027.713 2970.061,1029.478C2955.69,1034.055 2940.942,1038.25 2925.821,1042.072C2893.757,1050.605 2873.459,1059.009 2864.926,1067.284C2856.134,1075.817 2851.738,1085.513 2851.738,1096.374C2851.738,1108.785 2856.069,1118.934 2864.732,1126.821C2873.394,1134.708 2886.129,1138.651 2902.937,1138.651C2920.52,1138.651 2936.875,1134.384 2952.002,1125.851C2967.128,1117.318 2977.859,1106.911 2984.195,1094.628C2990.53,1082.346 2993.697,1066.379 2993.697,1046.727L2993.697,1046.725Z" style="fill:rgb(255,128,0);fill-rule:nonzero;"/>
            </g>
        </g>
    </g>
</svg>
